<svg version="1.1" baseProfile="full" width="500" height="500" xmlns="http://www.w3.org/2000/svg"><circle cx="250" cy="250" r="250" fill="black"/><path d="M 250 10 A 240 240, 0, 0, 0, 250 490 L 250 10" fill="#004674"/><path d="M 250 10 A 240 240, 0, 0, 1, 250 490 L 250 10" fill="#00558b"/><path d="M 210 40 A 215 215, 0, 0, 0, 210 460 L 210 420 A 175 175, 0, 0, 1, 210 80 Z" fill="#000"/><path d="M 290 40 A 215 215, 0, 0, 1, 290 460 L 290 420 A 175 175, 0, 0 ,0, 290 80 Z" fill="#000"/><circle cx="250" cy="250" r="135" fill="black"/><path d="M 250 155 A 95 95, 0, 0, 0, 250 345 L 250 115" fill="#004674"/><path d="M 250 155 A 95 95, 0, 0, 1, 250 345 L 250 115" fill="#00558b"/></svg>